<svg width="21" height="18" viewBox="0 0 21 18" fill="none" xmlns="http://www.w3.org/2000/svg">
<path d="M20.8998 0.00955282C19.9901 0.65125 18.9828 1.14204 17.9168 1.46304C17.3447 0.80518 16.5843 0.338907 15.7385 0.127281C14.8927 -0.0843438 14.0024 -0.0311109 13.1878 0.279781C12.3733 0.590672 11.6739 1.14422 11.1842 1.86556C10.6945 2.58691 10.4382 3.44124 10.4499 4.31301V5.263C8.78041 5.30629 7.12613 4.93602 5.6344 4.18518C4.14266 3.43434 2.85977 2.32623 1.89998 0.959543C1.89998 0.959543 -1.89998 9.50945 6.64993 13.3094C4.69345 14.6375 2.36277 15.3034 0 15.2094C8.54991 19.9593 18.9998 15.2094 18.9998 4.28451C18.9989 4.01989 18.9735 3.75593 18.9238 3.49602C19.8934 2.53984 20.5776 1.33262 20.8998 0.00955282Z" fill="white"/>
</svg>
