<svg width="21" height="21" viewBox="0 0 21 21" fill="none" xmlns="http://www.w3.org/2000/svg">
<path fill-rule="evenodd" clip-rule="evenodd" d="M5.72735 1.90911C3.6186 1.90911 1.90912 3.61859 1.90912 5.72734V15.2729C1.90912 17.3817 3.6186 19.0912 5.72735 19.0912H15.2729C17.3817 19.0912 19.0912 17.3817 19.0912 15.2729V5.72734C19.0912 3.61859 17.3817 1.90911 15.2729 1.90911H5.72735ZM5.90086e-06 5.72734C5.90086e-06 2.56421 2.56423 -6.91414e-06 5.72735 -6.91414e-06H15.2729C18.4361 -6.91414e-06 21.0003 2.56421 21.0003 5.72734V15.2729C21.0003 18.436 18.4361 21.0003 15.2729 21.0003H5.72735C2.56423 21.0003 5.90086e-06 18.436 5.90086e-06 15.2729V5.72734ZM10.9615 7.62613C10.3657 7.53778 9.75718 7.63955 9.22253 7.91697C8.68788 8.19439 8.25432 8.63333 7.98352 9.17135C7.71272 9.70938 7.61846 10.3191 7.71415 10.9138C7.80984 11.5085 8.09062 12.0578 8.51653 12.4838C8.94245 12.9097 9.49182 13.1904 10.0865 13.2861C10.6812 13.3818 11.2909 13.2876 11.8289 13.0168C12.367 12.746 12.8059 12.3124 13.0833 11.7778C13.3607 11.2431 13.4625 10.6346 13.3742 10.0388C13.284 9.43102 13.0008 8.86836 12.5664 8.43391C12.1319 7.99946 11.5693 7.71626 10.9615 7.62613ZM8.34325 6.22239C9.23433 5.76003 10.2485 5.59041 11.2415 5.73767C12.2545 5.88787 13.1922 6.35988 13.9163 7.08396C14.6404 7.80804 15.1124 8.74581 15.2626 9.75874C15.4099 10.7518 15.2403 11.766 14.7779 12.657C14.3155 13.5481 13.584 14.2707 12.6873 14.7221C11.7905 15.1734 10.7743 15.3305 9.7832 15.171C8.79206 15.0115 7.87644 14.5436 7.16658 13.8337C6.45672 13.1238 5.98877 12.2082 5.82928 11.2171C5.66979 10.2259 5.82689 9.20975 6.27823 8.31303C6.72957 7.41632 7.45217 6.68476 8.34325 6.22239ZM15.7502 4.2955C15.223 4.2955 14.7957 4.72287 14.7957 5.25006C14.7957 5.77725 15.223 6.20462 15.7502 6.20462H15.7602C16.2874 6.20462 16.7148 5.77725 16.7148 5.25006C16.7148 4.72287 16.2874 4.2955 15.7602 4.2955H15.7502Z" fill="white"/>
</svg>
